<?xml version="1.0" standalone="no"?>
<!DOCTYPE svg PUBLIC "-//W3C//DTD SVG 20010904//EN"
 "http://www.w3.org/TR/2001/REC-SVG-20010904/DTD/svg10.dtd">
<svg version="1.0" xmlns="http://www.w3.org/2000/svg"
 width="1000.000000pt" height="1000.000000pt" viewBox="0 0 1000.000000 1000.000000"
 preserveAspectRatio="xMidYMid meet">

<g transform="translate(0.000000,1000.000000) scale(0.100000,-0.100000)"
fill="#000000" stroke="none">
<path d="M1510 6110 l0 -1520 300 0 300 0 0 690 0 690 680 0 680 0 0 -690 0
-690 300 0 300 0 0 1520 0 1520 -297 -2 -298 -3 -3 -572 -2 -573 -680 0 -680
0 -2 573 -3 572 -297 3 -298 2 0 -1520z"/>
<path d="M6941 5787 c-6 -6 -11 -20 -11 -31 0 -23 -36 -106 -45 -106 -3 0 -28
7 -56 16 -76 25 -237 16 -309 -17 -77 -36 -115 -71 -146 -136 -23 -47 -28 -68
-27 -134 0 -100 33 -174 99 -222 24 -18 43 -37 44 -44 0 -6 -15 -16 -33 -22
-112 -37 -141 -168 -56 -250 21 -21 39 -41 39 -43 0 -3 -19 -10 -42 -17 -91
-27 -138 -85 -138 -171 0 -80 48 -154 125 -193 89 -45 286 -67 429 -48 218 29
325 119 334 281 5 85 -11 142 -54 189 -59 66 -111 81 -313 92 -191 11 -223 21
-229 71 -6 47 27 62 142 64 158 4 251 44 319 140 60 86 59 223 -3 312 -16 23
-30 44 -30 46 0 1 20 17 44 34 44 32 86 99 86 139 0 17 -12 24 -79 40 -57 15
-83 17 -90 10z m-159 -283 c38 -20 60 -66 60 -129 1 -66 -24 -113 -72 -137
-71 -36 -157 -12 -192 53 -33 62 -17 169 31 206 43 34 116 36 173 7z m-12
-768 c99 -4 134 -18 150 -57 21 -50 -7 -99 -75 -130 -31 -14 -64 -19 -145 -19
-140 0 -206 30 -223 99 -7 27 14 84 34 97 20 12 79 20 129 17 25 -1 83 -4 130
-7z"/>
<path d="M5690 5671 c-52 -17 -89 -42 -133 -91 -25 -27 -48 -50 -51 -50 -3 0
-6 32 -6 70 l0 70 -110 0 -110 0 0 -460 0 -460 114 0 115 0 3 298 c3 334 5
344 82 406 35 29 43 31 122 31 81 0 85 -1 116 -33 l33 -32 3 -335 3 -335 114
0 115 0 0 330 c0 205 -4 349 -11 382 -20 96 -62 154 -139 194 -39 20 -214 30
-260 15z"/>
<path d="M7727 5669 c-62 -10 -120 -48 -149 -99 -13 -22 -27 -38 -33 -37 -5 2
-11 34 -13 71 l-3 67 -107 -3 -107 -3 -3 -457 -2 -458 114 0 115 0 4 273 c2
179 8 285 16 310 34 104 148 161 250 126 18 -6 35 -9 38 -6 11 12 43 191 35
199 -15 15 -105 24 -155 17z"/>
<path d="M4200 5348 c0 -360 9 -433 58 -503 55 -78 122 -106 254 -106 105 0
172 30 226 102 20 27 40 49 44 49 4 0 8 -31 8 -70 l0 -70 110 0 110 0 0 460 0
461 -112 -3 -113 -3 -5 -300 -5 -300 -28 -48 c-37 -62 -85 -87 -170 -87 -51 0
-70 5 -92 22 -52 41 -55 60 -55 403 l0 315 -115 0 -115 0 0 -322z"/>
<path d="M7930 5648 c6 -13 89 -228 185 -478 l175 -455 -27 -55 c-22 -43 -38
-60 -73 -78 -44 -23 -88 -25 -209 -10 -23 3 -26 -2 -43 -86 -21 -103 -23 -100
67 -115 205 -36 345 30 438 206 28 54 396 1007 415 1076 4 15 -6 17 -109 17
l-114 0 -111 -318 c-73 -209 -115 -317 -124 -317 -9 0 -48 96 -112 275 -54
151 -105 294 -114 318 l-16 42 -119 0 -119 0 10 -22z"/>
</g>
</svg>
